<svg width="15" height="16" viewBox="0 0 15 16" fill="none" xmlns="http://www.w3.org/2000/svg">
<path d="M12.427 6.75727C12.427 9.85969 8.98534 13.0907 7.82962 14.0886C7.72195 14.1696 7.59089 14.2134 7.45618 14.2134C7.32148 14.2134 7.19042 14.1696 7.08275 14.0886C5.92703 13.0907 2.48535 9.85969 2.48535 6.75727C2.48535 5.43892 3.00906 4.17457 3.94127 3.24236C4.87349 2.31015 6.13784 1.78644 7.45618 1.78644C8.77453 1.78644 10.0389 2.31015 10.9711 3.24236C11.9033 4.17457 12.427 5.43892 12.427 6.75727Z" stroke="#5E83AE" stroke-width="1.24271" stroke-linecap="round" stroke-linejoin="round"/>
<path d="M7.45635 8.62137C8.48584 8.62137 9.32041 7.78681 9.32041 6.75731C9.32041 5.72782 8.48584 4.89325 7.45635 4.89325C6.42685 4.89325 5.59229 5.72782 5.59229 6.75731C5.59229 7.78681 6.42685 8.62137 7.45635 8.62137Z" stroke="#5E83AE" stroke-width="1.24271" stroke-linecap="round" stroke-linejoin="round"/>
</svg>
